<?xml version="1.0" encoding="iso-8859-1"?>
<!-- Generator: Adobe Illustrator 18.0.0, SVG Export Plug-In . SVG Version: 6.00 Build 0)  -->
<!DOCTYPE svg PUBLIC "-//W3C//DTD SVG 1.1//EN" "http://www.w3.org/Graphics/SVG/1.1/DTD/svg11.dtd">
<svg version="1.1" id="Capa_1" xmlns="http://www.w3.org/2000/svg" xmlns:xlink="http://www.w3.org/1999/xlink" x="0px" y="0px"
	 viewBox="0 0 238.75 238.75" style="enable-background:new 0 0 238.75 238.75;" xml:space="preserve">
<g>
	<path d="M156.619,138.47h-33.965v-37.31c0-4.142-3.357-7.5-7.5-7.5c-4.143,0-7.5,3.358-7.5,7.5v44.81c0,4.142,3.357,7.5,7.5,7.5
		h41.465c4.143,0,7.5-3.358,7.5-7.5C164.119,141.828,160.762,138.47,156.619,138.47z"/>
	<path d="M119.381,73.184c-37.315,0-67.674,30.357-67.674,67.671c0,37.312,30.358,67.668,67.674,67.668
		c37.309,0,67.662-30.356,67.662-67.668C187.043,103.54,156.689,73.184,119.381,73.184z M119.381,193.523
		c-29.045,0-52.674-23.627-52.674-52.668c0-29.043,23.629-52.671,52.674-52.671c29.038,0,52.662,23.628,52.662,52.671
		C172.043,169.895,148.419,193.523,119.381,193.523z"/>
</g>
<g>
</g>
<g>
</g>
<g>
</g>
<g>
</g>
<g>
</g>
<g>
</g>
<g>
</g>
<g>
</g>
<g>
</g>
<g>
</g>
<g>
</g>
<g>
</g>
<g>
</g>
<g>
</g>
<g>
</g>
</svg>
